# xmcd
#
# Track frame offsets:
#	150
#	6611
#	31908
#	51286
#	78677
#	108330
#	129645
#	157086
#	187517
#	213878
#	247138
#	275779
#
# Disc length: 4002 seconds
#
# Revision: 3
# Processed by: cddbd v1.5PL3 Copyright (c) Steve Scherf et al.
# Submitted via: audiograbber 1.80
#
DISCID=ab0fa00c
DTITLE=Bruce Springsteen and E Street Band - Barcelona 16 Oct 2002 [CD 1)
DYEAR=1900
DGENRE=
TTITLE0=The Rising
TTITLE1=Lonesome Day
TTITLE2=Prove It All Night
TTITLE3=Darkness
TTITLE4=Empty Sky
TTITLE5=You're Missing
TTITLE6=Waitin' On A Sunny Day
TTITLE7=The Promised Land
TTITLE8=Worlds Apart
TTITLE9=Badland
TTITLE10=She's The One
TTITLE11=Mary's Place
EXTD=
EXTT0=
EXTT1=
EXTT2=
EXTT3=
EXTT4=
EXTT5=
EXTT6=
EXTT7=
EXTT8=
EXTT9=
EXTT10=
EXTT11=
PLAYORDER=
